<?xml version="1.0" standalone="no"?><!DOCTYPE svg PUBLIC "-//W3C//DTD SVG 1.1//EN" "http://www.w3.org/Graphics/SVG/1.1/DTD/svg11.dtd"><svg t="1508313975178" class="icon" style="" viewBox="0 0 1024 1024" version="1.1" xmlns="http://www.w3.org/2000/svg" p-id="4364" xmlns:xlink="http://www.w3.org/1999/xlink" width="200" height="200"><defs><style type="text/css"></style></defs><path d="M823.079 926.772H200.921c-57.267 0-103.693-46.419-103.693-103.693V200.921c0-57.264 46.427-103.693 103.693-103.693h622.158c57.274 0 103.693 46.429 103.693 103.693v622.158c0 57.275-46.418 103.693-103.693 103.693z m41.478-705.113c0-34.358-27.848-62.216-62.216-62.216H221.659c-34.356 0-62.216 27.857-62.216 62.216v580.682c0 34.368 27.859 62.216 62.216 62.216h580.682c34.368 0 62.216-27.848 62.216-62.216V221.659z" p-id="4365" fill="#e6e6e6"></path></svg>