<?xml version="1.0" standalone="no"?><!DOCTYPE svg PUBLIC "-//W3C//DTD SVG 1.1//EN" "http://www.w3.org/Graphics/SVG/1.1/DTD/svg11.dtd"><svg t="1508465027694" class="icon" style="" viewBox="0 0 1260 1024" version="1.1" xmlns="http://www.w3.org/2000/svg" p-id="2643" xmlns:xlink="http://www.w3.org/1999/xlink" width="246.09375" height="200"><defs><style type="text/css"></style></defs><path d="M534.305767 0C251.025715 0 22.305767 228.719948 22.305767 512S251.025715 1024 534.305767 1024s512-228.719948 512-512S817.585819 0 534.305767 0m215.079922 727.079922c-13.640026 13.640026-37.593242 13.640026-51.233268 0l-163.846654-163.846654-163.846653 163.846654c-13.640026 13.640026-37.593242 13.640026-51.233269 0s-13.640026-37.593242 0-51.233268l163.846654-163.846654-163.846654-163.846654c-13.640026-13.640026-13.640026-37.593242 0-51.233268s37.593242-13.640026 51.233269 0l163.846653 163.846654 163.846654-163.846654c13.640026-13.640026 37.593242-13.640026 51.233268 0s13.640026 37.593242 0 51.233268l-163.846653 163.846654 163.846653 163.846654c17.133203 13.640026 17.133203 37.426901 0 51.233268" p-id="2644" fill="#bfbfbf"></path></svg>