<?xml version="1.0" standalone="no"?><!DOCTYPE svg PUBLIC "-//W3C//DTD SVG 1.1//EN" "http://www.w3.org/Graphics/SVG/1.1/DTD/svg11.dtd"><svg t="1508470733905" class="icon" style="" viewBox="0 0 1024 1024" version="1.1" xmlns="http://www.w3.org/2000/svg" p-id="3513" xmlns:xlink="http://www.w3.org/1999/xlink" width="200" height="200"><defs><style type="text/css"></style></defs><path d="M512 1024C229.239467 1024 0 794.760533 0 512 0 229.239467 229.239467 0 512 0c282.760533 0 512 229.239467 512 512 0 282.794667-229.239467 512-512 512z m0-960C264.567467 64 64 264.567467 64 512S264.567467 960 512 960 960 759.466667 960 512 759.432533 64 512 64z m223.982933 480.017067h-338.7392l131.8912 131.857066a32.017067 32.017067 0 0 1-45.2608 45.294934l-181.009066-181.0432A31.402667 31.402667 0 0 1 294.570667 512a31.470933 31.470933 0 0 1 8.2944-28.125867l181.009066-181.009066a31.982933 31.982933 0 1 1 45.2608 45.2608l-131.8912 131.8912h338.7392a31.982933 31.982933 0 1 1 0 64z" p-id="3514" fill="#cdcdcd"></path></svg>