<?xml version="1.0" standalone="no"?><!DOCTYPE svg PUBLIC "-//W3C//DTD SVG 1.1//EN" "http://www.w3.org/Graphics/SVG/1.1/DTD/svg11.dtd"><svg t="1508404457624" class="icon" style="" viewBox="0 0 1025 1024" version="1.1" xmlns="http://www.w3.org/2000/svg" p-id="4417" xmlns:xlink="http://www.w3.org/1999/xlink" width="200.1953125" height="200"><defs><style type="text/css"></style></defs><path d="M518.429 0.735c13.085 0 24.11 4.49 33.065 13.43l232.579 232.579c8.955 8.955 13.43 19.975 13.43 33.065 0 13.335-4.42 24.415-13.25 33.25-8.84 8.845-19.92 13.26-33.245 13.26-13.095 0-24.125-4.48-33.075-13.435l-152.975-153.35 0 538.909c0 12.83-4.545 23.8-13.63 32.895-9.095 9.09-20.06 13.635-32.895 13.635-12.85 0-23.81-4.545-32.9-13.635-9.095-9.095-13.65-20.065-13.65-32.895L471.883 159.534l-152.955 153.35c-9.45 8.96-20.47 13.435-33.08 13.435-12.85 0-23.8-4.55-32.895-13.635-9.095-9.09-13.645-20.065-13.645-32.9 0-12.605 4.47-23.635 13.43-33.07L485.314 14.135c8.95-8.96 19.99-13.43 33.07-13.43L518.429 0.735zM978.068 651.903c12.83 0 23.805 4.55 32.885 13.64 9.085 9.095 13.64 20.065 13.64 32.91l0 186.025c0 38.77-13.435 71.595-40.33 98.49-27.37 27.36-60.08 41.05-98.115 41.05L140.815 1024.018c-38.022 0-70.965-13.57-98.825-40.71-27.145-27.86-40.71-60.805-40.71-98.83L1.28 698.453c0-12.855 4.542-23.815 13.635-32.91 9.095-9.09 20.062-13.64 32.902-13.64 12.832 0 23.8 4.55 32.895 13.64 9.092 9.095 13.635 20.065 13.635 32.91l0 186.025c0 12.835 4.542 23.81 13.642 32.905 9.092 9.09 20.052 13.62 32.897 13.62l745.321 0c12.595 0 23.32-4.53 32.16-13.62 8.84-9.095 13.265-20.07 13.265-32.905L931.632 698.453c0-12.855 4.545-23.815 13.635-32.91 9.095-9.09 20.055-13.64 32.89-13.64L978.068 651.903z" p-id="4418" fill="#cdcdcd"></path></svg>