<?xml version="1.0" standalone="no"?><!DOCTYPE svg PUBLIC "-//W3C//DTD SVG 1.1//EN" "http://www.w3.org/Graphics/SVG/1.1/DTD/svg11.dtd"><svg t="1508404411867" class="icon" style="" viewBox="0 0 1024 1024" version="1.1" xmlns="http://www.w3.org/2000/svg" p-id="3709" xmlns:xlink="http://www.w3.org/1999/xlink" width="200" height="200"><defs><style type="text/css"></style></defs><path d="M836.630588 594.09474l0 189.868325-648.100748 0L188.529841 594.09474 64.019059 594.09474l0 245.701958c0 30.780027 27.888164 55.771211 62.34186 55.771211l772.441661 0c34.521235 0 62.339814-24.991184 62.339814-55.771211L961.142393 594.09474 836.630588 594.09474z" p-id="3710" fill="#cdcdcd"></path><path d="M501.18877 575.260789l-178.318268-193.036481c0 0-27.105335-22.981411 2.348488-22.981411 29.351492 0 100.397594 0 100.397594 0s0-15.482623 0-39.312354c0-67.843154 0-191.453427 0-241.801115 0 0-3.942799-13.712303 19.116383-13.712303 23.194258 0 124.817774 0 141.41273 0 16.563234 0 16.190751 11.518335 16.190751 11.518335 0 48.88436 0 176.701444 0 242.409982 0 21.271466 0 35.046191 0 35.046191s57.000202 0 92.778056 0c35.71134 0 8.775874 24.076348 8.775874 24.076348S552.167838 557.950542 531.048845 576.846914C515.777023 590.621639 501.18877 575.260789 501.18877 575.260789z" p-id="3711" fill="#cdcdcd"></path></svg>